<svg xmlns="http://www.w3.org/2000/svg" viewBox="0 0 1000 130" role="img" aria-labelledby="title description">
<title id="title">GitHub activity calendar</title><desc id="description">1473 contributions in the last year. Source: https://github.com/users/Daugavan/contributions. Retrieved 2026-10-08.</desc>
<g font-family="system-ui, sans-serif" font-size="11" fill="#9ca8b8">
<text x="34" y="14">Oct</text>
<text x="87.88679245283019" y="14">Nov</text>
<text x="177.69811320754718" y="14">Dec</text>
<text x="249.54716981132077" y="14">Jan</text>
<text x="339.35849056603774" y="14">Feb</text>
<text x="411.20754716981133" y="14">Mar</text>
<text x="483.0566037735849" y="14">Apr</text>
<text x="554.9056603773586" y="14">May</text>
<text x="644.7169811320755" y="14">Jun</text>
<text x="716.5660377358491" y="14">Jul</text>
<text x="788.4150943396227" y="14">Aug</text>
<text x="878.2264150943397" y="14">Sep</text>
<text x="2" y="46">Mon</text>
<text x="2" y="72">Wed</text>
<text x="2" y="98">Fri</text>
</g>
<rect x="34.00" y="24" width="14.96" height="10" rx="2" fill="#161e2b"/>
<rect x="34.00" y="37" width="14.96" height="10" rx="2" fill="#161e2b"/>
<rect x="34.00" y="50" width="14.96" height="10" rx="2" fill="#0e4429"/>
<rect x="34.00" y="63" width="14.96" height="10" rx="2" fill="#161e2b"/>
<rect x="34.00" y="76" width="14.96" height="10" rx="2" fill="#161e2b"/>
<rect x="34.00" y="89" width="14.96" height="10" rx="2" fill="#161e2b"/>
<rect x="34.00" y="102" width="14.96" height="10" rx="2" fill="#161e2b"/>
<rect x="51.96" y="24" width="14.96" height="10" rx="2" fill="#161e2b"/>
<rect x="51.96" y="37" width="14.96" height="10" rx="2" fill="#161e2b"/>
<rect x="51.96" y="50" width="14.96" height="10" rx="2" fill="#161e2b"/>
<rect x="51.96" y="63" width="14.96" height="10" rx="2" fill="#161e2b"/>
<rect x="51.96" y="76" width="14.96" height="10" rx="2" fill="#161e2b"/>
<rect x="51.96" y="89" width="14.96" height="10" rx="2" fill="#161e2b"/>
<rect x="51.96" y="102" width="14.96" height="10" rx="2" fill="#161e2b"/>
<rect x="69.92" y="24" width="14.96" height="10" rx="2" fill="#161e2b"/>
<rect x="69.92" y="37" width="14.96" height="10" rx="2" fill="#161e2b"/>
<rect x="69.92" y="50" width="14.96" height="10" rx="2" fill="#161e2b"/>
<rect x="69.92" y="63" width="14.96" height="10" rx="2" fill="#161e2b"/>
<rect x="69.92" y="76" width="14.96" height="10" rx="2" fill="#161e2b"/>
<rect x="69.92" y="89" width="14.96" height="10" rx="2" fill="#161e2b"/>
<rect x="69.92" y="102" width="14.96" height="10" rx="2" fill="#161e2b"/>
<rect x="87.89" y="24" width="14.96" height="10" rx="2" fill="#161e2b"/>
<rect x="87.89" y="37" width="14.96" height="10" rx="2" fill="#161e2b"/>
<rect x="87.89" y="50" width="14.96" height="10" rx="2" fill="#161e2b"/>
<rect x="87.89" y="63" width="14.96" height="10" rx="2" fill="#161e2b"/>
<rect x="87.89" y="76" width="14.96" height="10" rx="2" fill="#161e2b"/>
<rect x="87.89" y="89" width="14.96" height="10" rx="2" fill="#161e2b"/>
<rect x="87.89" y="102" width="14.96" height="10" rx="2" fill="#161e2b"/>
<rect x="105.85" y="24" width="14.96" height="10" rx="2" fill="#161e2b"/>
<rect x="105.85" y="37" width="14.96" height="10" rx="2" fill="#161e2b"/>
<rect x="105.85" y="50" width="14.96" height="10" rx="2" fill="#161e2b"/>
<rect x="105.85" y="63" width="14.96" height="10" rx="2" fill="#161e2b"/>
<rect x="105.85" y="76" width="14.96" height="10" rx="2" fill="#161e2b"/>
<rect x="105.85" y="89" width="14.96" height="10" rx="2" fill="#161e2b"/>
<rect x="105.85" y="102" width="14.96" height="10" rx="2" fill="#161e2b"/>
<rect x="123.81" y="24" width="14.96" height="10" rx="2" fill="#161e2b"/>
<rect x="123.81" y="37" width="14.96" height="10" rx="2" fill="#161e2b"/>
<rect x="123.81" y="50" width="14.96" height="10" rx="2" fill="#161e2b"/>
<rect x="123.81" y="63" width="14.96" height="10" rx="2" fill="#161e2b"/>
<rect x="123.81" y="76" width="14.96" height="10" rx="2" fill="#161e2b"/>
<rect x="123.81" y="89" width="14.96" height="10" rx="2" fill="#161e2b"/>
<rect x="123.81" y="102" width="14.96" height="10" rx="2" fill="#161e2b"/>
<rect x="141.77" y="24" width="14.96" height="10" rx="2" fill="#161e2b"/>
<rect x="141.77" y="37" width="14.96" height="10" rx="2" fill="#161e2b"/>
<rect x="141.77" y="50" width="14.96" height="10" rx="2" fill="#161e2b"/>
<rect x="141.77" y="63" width="14.96" height="10" rx="2" fill="#161e2b"/>
<rect x="141.77" y="76" width="14.96" height="10" rx="2" fill="#161e2b"/>
<rect x="141.77" y="89" width="14.96" height="10" rx="2" fill="#161e2b"/>
<rect x="141.77" y="102" width="14.96" height="10" rx="2" fill="#161e2b"/>
<rect x="159.74" y="24" width="14.96" height="10" rx="2" fill="#161e2b"/>
<rect x="159.74" y="37" width="14.96" height="10" rx="2" fill="#161e2b"/>
<rect x="159.74" y="50" width="14.96" height="10" rx="2" fill="#161e2b"/>
<rect x="159.74" y="63" width="14.96" height="10" rx="2" fill="#161e2b"/>
<rect x="159.74" y="76" width="14.96" height="10" rx="2" fill="#161e2b"/>
<rect x="159.74" y="89" width="14.96" height="10" rx="2" fill="#161e2b"/>
<rect x="159.74" y="102" width="14.96" height="10" rx="2" fill="#161e2b"/>
<rect x="177.70" y="24" width="14.96" height="10" rx="2" fill="#161e2b"/>
<rect x="177.70" y="37" width="14.96" height="10" rx="2" fill="#161e2b"/>
<rect x="177.70" y="50" width="14.96" height="10" rx="2" fill="#161e2b"/>
<rect x="177.70" y="63" width="14.96" height="10" rx="2" fill="#161e2b"/>
<rect x="177.70" y="76" width="14.96" height="10" rx="2" fill="#161e2b"/>
<rect x="177.70" y="89" width="14.96" height="10" rx="2" fill="#161e2b"/>
<rect x="177.70" y="102" width="14.96" height="10" rx="2" fill="#161e2b"/>
<rect x="195.66" y="24" width="14.96" height="10" rx="2" fill="#161e2b"/>
<rect x="195.66" y="37" width="14.96" height="10" rx="2" fill="#161e2b"/>
<rect x="195.66" y="50" width="14.96" height="10" rx="2" fill="#161e2b"/>
<rect x="195.66" y="63" width="14.96" height="10" rx="2" fill="#161e2b"/>
<rect x="195.66" y="76" width="14.96" height="10" rx="2" fill="#161e2b"/>
<rect x="195.66" y="89" width="14.96" height="10" rx="2" fill="#161e2b"/>
<rect x="195.66" y="102" width="14.96" height="10" rx="2" fill="#161e2b"/>
<rect x="213.62" y="24" width="14.96" height="10" rx="2" fill="#161e2b"/>
<rect x="213.62" y="37" width="14.96" height="10" rx="2" fill="#161e2b"/>
<rect x="213.62" y="50" width="14.96" height="10" rx="2" fill="#161e2b"/>
<rect x="213.62" y="63" width="14.96" height="10" rx="2" fill="#161e2b"/>
<rect x="213.62" y="76" width="14.96" height="10" rx="2" fill="#161e2b"/>
<rect x="213.62" y="89" width="14.96" height="10" rx="2" fill="#161e2b"/>
<rect x="213.62" y="102" width="14.96" height="10" rx="2" fill="#161e2b"/>
<rect x="231.58" y="24" width="14.96" height="10" rx="2" fill="#161e2b"/>
<rect x="231.58" y="37" width="14.96" height="10" rx="2" fill="#161e2b"/>
<rect x="231.58" y="50" width="14.96" height="10" rx="2" fill="#161e2b"/>
<rect x="231.58" y="63" width="14.96" height="10" rx="2" fill="#161e2b"/>
<rect x="231.58" y="76" width="14.96" height="10" rx="2" fill="#161e2b"/>
<rect x="231.58" y="89" width="14.96" height="10" rx="2" fill="#161e2b"/>
<rect x="231.58" y="102" width="14.96" height="10" rx="2" fill="#161e2b"/>
<rect x="249.55" y="24" width="14.96" height="10" rx="2" fill="#161e2b"/>
<rect x="249.55" y="37" width="14.96" height="10" rx="2" fill="#161e2b"/>
<rect x="249.55" y="50" width="14.96" height="10" rx="2" fill="#161e2b"/>
<rect x="249.55" y="63" width="14.96" height="10" rx="2" fill="#161e2b"/>
<rect x="249.55" y="76" width="14.96" height="10" rx="2" fill="#161e2b"/>
<rect x="249.55" y="89" width="14.96" height="10" rx="2" fill="#161e2b"/>
<rect x="249.55" y="102" width="14.96" height="10" rx="2" fill="#161e2b"/>
<rect x="267.51" y="24" width="14.96" height="10" rx="2" fill="#161e2b"/>
<rect x="267.51" y="37" width="14.96" height="10" rx="2" fill="#161e2b"/>
<rect x="267.51" y="50" width="14.96" height="10" rx="2" fill="#161e2b"/>
<rect x="267.51" y="63" width="14.96" height="10" rx="2" fill="#161e2b"/>
<rect x="267.51" y="76" width="14.96" height="10" rx="2" fill="#161e2b"/>
<rect x="267.51" y="89" width="14.96" height="10" rx="2" fill="#161e2b"/>
<rect x="267.51" y="102" width="14.96" height="10" rx="2" fill="#161e2b"/>
<rect x="285.47" y="24" width="14.96" height="10" rx="2" fill="#161e2b"/>
<rect x="285.47" y="37" width="14.96" height="10" rx="2" fill="#161e2b"/>
<rect x="285.47" y="50" width="14.96" height="10" rx="2" fill="#161e2b"/>
<rect x="285.47" y="63" width="14.96" height="10" rx="2" fill="#161e2b"/>
<rect x="285.47" y="76" width="14.96" height="10" rx="2" fill="#161e2b"/>
<rect x="285.47" y="89" width="14.96" height="10" rx="2" fill="#161e2b"/>
<rect x="285.47" y="102" width="14.96" height="10" rx="2" fill="#161e2b"/>
<rect x="303.43" y="24" width="14.96" height="10" rx="2" fill="#161e2b"/>
<rect x="303.43" y="37" width="14.96" height="10" rx="2" fill="#161e2b"/>
<rect x="303.43" y="50" width="14.96" height="10" rx="2" fill="#161e2b"/>
<rect x="303.43" y="63" width="14.96" height="10" rx="2" fill="#161e2b"/>
<rect x="303.43" y="76" width="14.96" height="10" rx="2" fill="#161e2b"/>
<rect x="303.43" y="89" width="14.96" height="10" rx="2" fill="#161e2b"/>
<rect x="303.43" y="102" width="14.96" height="10" rx="2" fill="#161e2b"/>
<rect x="321.40" y="24" width="14.96" height="10" rx="2" fill="#161e2b"/>
<rect x="321.40" y="37" width="14.96" height="10" rx="2" fill="#161e2b"/>
<rect x="321.40" y="50" width="14.96" height="10" rx="2" fill="#161e2b"/>
<rect x="321.40" y="63" width="14.96" height="10" rx="2" fill="#161e2b"/>
<rect x="321.40" y="76" width="14.96" height="10" rx="2" fill="#161e2b"/>
<rect x="321.40" y="89" width="14.96" height="10" rx="2" fill="#161e2b"/>
<rect x="321.40" y="102" width="14.96" height="10" rx="2" fill="#161e2b"/>
<rect x="339.36" y="24" width="14.96" height="10" rx="2" fill="#161e2b"/>
<rect x="339.36" y="37" width="14.96" height="10" rx="2" fill="#161e2b"/>
<rect x="339.36" y="50" width="14.96" height="10" rx="2" fill="#161e2b"/>
<rect x="339.36" y="63" width="14.96" height="10" rx="2" fill="#161e2b"/>
<rect x="339.36" y="76" width="14.96" height="10" rx="2" fill="#161e2b"/>
<rect x="339.36" y="89" width="14.96" height="10" rx="2" fill="#161e2b"/>
<rect x="339.36" y="102" width="14.96" height="10" rx="2" fill="#161e2b"/>
<rect x="357.32" y="24" width="14.96" height="10" rx="2" fill="#161e2b"/>
<rect x="357.32" y="37" width="14.96" height="10" rx="2" fill="#161e2b"/>
<rect x="357.32" y="50" width="14.96" height="10" rx="2" fill="#161e2b"/>
<rect x="357.32" y="63" width="14.96" height="10" rx="2" fill="#161e2b"/>
<rect x="357.32" y="76" width="14.96" height="10" rx="2" fill="#161e2b"/>
<rect x="357.32" y="89" width="14.96" height="10" rx="2" fill="#161e2b"/>
<rect x="357.32" y="102" width="14.96" height="10" rx="2" fill="#161e2b"/>
<rect x="375.28" y="24" width="14.96" height="10" rx="2" fill="#161e2b"/>
<rect x="375.28" y="37" width="14.96" height="10" rx="2" fill="#161e2b"/>
<rect x="375.28" y="50" width="14.96" height="10" rx="2" fill="#161e2b"/>
<rect x="375.28" y="63" width="14.96" height="10" rx="2" fill="#161e2b"/>
<rect x="375.28" y="76" width="14.96" height="10" rx="2" fill="#161e2b"/>
<rect x="375.28" y="89" width="14.96" height="10" rx="2" fill="#161e2b"/>
<rect x="375.28" y="102" width="14.96" height="10" rx="2" fill="#161e2b"/>
<rect x="393.25" y="24" width="14.96" height="10" rx="2" fill="#161e2b"/>
<rect x="393.25" y="37" width="14.96" height="10" rx="2" fill="#161e2b"/>
<rect x="393.25" y="50" width="14.96" height="10" rx="2" fill="#161e2b"/>
<rect x="393.25" y="63" width="14.96" height="10" rx="2" fill="#161e2b"/>
<rect x="393.25" y="76" width="14.96" height="10" rx="2" fill="#161e2b"/>
<rect x="393.25" y="89" width="14.96" height="10" rx="2" fill="#161e2b"/>
<rect x="393.25" y="102" width="14.96" height="10" rx="2" fill="#161e2b"/>
<rect x="411.21" y="24" width="14.96" height="10" rx="2" fill="#161e2b"/>
<rect x="411.21" y="37" width="14.96" height="10" rx="2" fill="#161e2b"/>
<rect x="411.21" y="50" width="14.96" height="10" rx="2" fill="#161e2b"/>
<rect x="411.21" y="63" width="14.96" height="10" rx="2" fill="#161e2b"/>
<rect x="411.21" y="76" width="14.96" height="10" rx="2" fill="#161e2b"/>
<rect x="411.21" y="89" width="14.96" height="10" rx="2" fill="#161e2b"/>
<rect x="411.21" y="102" width="14.96" height="10" rx="2" fill="#161e2b"/>
<rect x="429.17" y="24" width="14.96" height="10" rx="2" fill="#161e2b"/>
<rect x="429.17" y="37" width="14.96" height="10" rx="2" fill="#161e2b"/>
<rect x="429.17" y="50" width="14.96" height="10" rx="2" fill="#161e2b"/>
<rect x="429.17" y="63" width="14.96" height="10" rx="2" fill="#0e4429"/>
<rect x="429.17" y="76" width="14.96" height="10" rx="2" fill="#0e4429"/>
<rect x="429.17" y="89" width="14.96" height="10" rx="2" fill="#161e2b"/>
<rect x="429.17" y="102" width="14.96" height="10" rx="2" fill="#161e2b"/>
<rect x="447.13" y="24" width="14.96" height="10" rx="2" fill="#161e2b"/>
<rect x="447.13" y="37" width="14.96" height="10" rx="2" fill="#161e2b"/>
<rect x="447.13" y="50" width="14.96" height="10" rx="2" fill="#161e2b"/>
<rect x="447.13" y="63" width="14.96" height="10" rx="2" fill="#161e2b"/>
<rect x="447.13" y="76" width="14.96" height="10" rx="2" fill="#161e2b"/>
<rect x="447.13" y="89" width="14.96" height="10" rx="2" fill="#161e2b"/>
<rect x="447.13" y="102" width="14.96" height="10" rx="2" fill="#161e2b"/>
<rect x="465.09" y="24" width="14.96" height="10" rx="2" fill="#161e2b"/>
<rect x="465.09" y="37" width="14.96" height="10" rx="2" fill="#161e2b"/>
<rect x="465.09" y="50" width="14.96" height="10" rx="2" fill="#161e2b"/>
<rect x="465.09" y="63" width="14.96" height="10" rx="2" fill="#161e2b"/>
<rect x="465.09" y="76" width="14.96" height="10" rx="2" fill="#161e2b"/>
<rect x="465.09" y="89" width="14.96" height="10" rx="2" fill="#161e2b"/>
<rect x="465.09" y="102" width="14.96" height="10" rx="2" fill="#161e2b"/>
<rect x="483.06" y="24" width="14.96" height="10" rx="2" fill="#161e2b"/>
<rect x="483.06" y="37" width="14.96" height="10" rx="2" fill="#161e2b"/>
<rect x="483.06" y="50" width="14.96" height="10" rx="2" fill="#161e2b"/>
<rect x="483.06" y="63" width="14.96" height="10" rx="2" fill="#161e2b"/>
<rect x="483.06" y="76" width="14.96" height="10" rx="2" fill="#161e2b"/>
<rect x="483.06" y="89" width="14.96" height="10" rx="2" fill="#161e2b"/>
<rect x="483.06" y="102" width="14.96" height="10" rx="2" fill="#161e2b"/>
<rect x="501.02" y="24" width="14.96" height="10" rx="2" fill="#161e2b"/>
<rect x="501.02" y="37" width="14.96" height="10" rx="2" fill="#161e2b"/>
<rect x="501.02" y="50" width="14.96" height="10" rx="2" fill="#161e2b"/>
<rect x="501.02" y="63" width="14.96" height="10" rx="2" fill="#161e2b"/>
<rect x="501.02" y="76" width="14.96" height="10" rx="2" fill="#161e2b"/>
<rect x="501.02" y="89" width="14.96" height="10" rx="2" fill="#161e2b"/>
<rect x="501.02" y="102" width="14.96" height="10" rx="2" fill="#161e2b"/>
<rect x="518.98" y="24" width="14.96" height="10" rx="2" fill="#161e2b"/>
<rect x="518.98" y="37" width="14.96" height="10" rx="2" fill="#161e2b"/>
<rect x="518.98" y="50" width="14.96" height="10" rx="2" fill="#161e2b"/>
<rect x="518.98" y="63" width="14.96" height="10" rx="2" fill="#161e2b"/>
<rect x="518.98" y="76" width="14.96" height="10" rx="2" fill="#161e2b"/>
<rect x="518.98" y="89" width="14.96" height="10" rx="2" fill="#161e2b"/>
<rect x="518.98" y="102" width="14.96" height="10" rx="2" fill="#161e2b"/>
<rect x="536.94" y="24" width="14.96" height="10" rx="2" fill="#161e2b"/>
<rect x="536.94" y="37" width="14.96" height="10" rx="2" fill="#161e2b"/>
<rect x="536.94" y="50" width="14.96" height="10" rx="2" fill="#161e2b"/>
<rect x="536.94" y="63" width="14.96" height="10" rx="2" fill="#161e2b"/>
<rect x="536.94" y="76" width="14.96" height="10" rx="2" fill="#0e4429"/>
<rect x="536.94" y="89" width="14.96" height="10" rx="2" fill="#161e2b"/>
<rect x="536.94" y="102" width="14.96" height="10" rx="2" fill="#161e2b"/>
<rect x="554.91" y="24" width="14.96" height="10" rx="2" fill="#161e2b"/>
<rect x="554.91" y="37" width="14.96" height="10" rx="2" fill="#161e2b"/>
<rect x="554.91" y="50" width="14.96" height="10" rx="2" fill="#161e2b"/>
<rect x="554.91" y="63" width="14.96" height="10" rx="2" fill="#161e2b"/>
<rect x="554.91" y="76" width="14.96" height="10" rx="2" fill="#161e2b"/>
<rect x="554.91" y="89" width="14.96" height="10" rx="2" fill="#161e2b"/>
<rect x="554.91" y="102" width="14.96" height="10" rx="2" fill="#161e2b"/>
<rect x="572.87" y="24" width="14.96" height="10" rx="2" fill="#161e2b"/>
<rect x="572.87" y="37" width="14.96" height="10" rx="2" fill="#161e2b"/>
<rect x="572.87" y="50" width="14.96" height="10" rx="2" fill="#161e2b"/>
<rect x="572.87" y="63" width="14.96" height="10" rx="2" fill="#161e2b"/>
<rect x="572.87" y="76" width="14.96" height="10" rx="2" fill="#161e2b"/>
<rect x="572.87" y="89" width="14.96" height="10" rx="2" fill="#161e2b"/>
<rect x="572.87" y="102" width="14.96" height="10" rx="2" fill="#161e2b"/>
<rect x="590.83" y="24" width="14.96" height="10" rx="2" fill="#161e2b"/>
<rect x="590.83" y="37" width="14.96" height="10" rx="2" fill="#161e2b"/>
<rect x="590.83" y="50" width="14.96" height="10" rx="2" fill="#161e2b"/>
<rect x="590.83" y="63" width="14.96" height="10" rx="2" fill="#161e2b"/>
<rect x="590.83" y="76" width="14.96" height="10" rx="2" fill="#161e2b"/>
<rect x="590.83" y="89" width="14.96" height="10" rx="2" fill="#161e2b"/>
<rect x="590.83" y="102" width="14.96" height="10" rx="2" fill="#161e2b"/>
<rect x="608.79" y="24" width="14.96" height="10" rx="2" fill="#161e2b"/>
<rect x="608.79" y="37" width="14.96" height="10" rx="2" fill="#161e2b"/>
<rect x="608.79" y="50" width="14.96" height="10" rx="2" fill="#161e2b"/>
<rect x="608.79" y="63" width="14.96" height="10" rx="2" fill="#0e4429"/>
<rect x="608.79" y="76" width="14.96" height="10" rx="2" fill="#161e2b"/>
<rect x="608.79" y="89" width="14.96" height="10" rx="2" fill="#161e2b"/>
<rect x="608.79" y="102" width="14.96" height="10" rx="2" fill="#161e2b"/>
<rect x="626.75" y="24" width="14.96" height="10" rx="2" fill="#0e4429"/>
<rect x="626.75" y="37" width="14.96" height="10" rx="2" fill="#161e2b"/>
<rect x="626.75" y="50" width="14.96" height="10" rx="2" fill="#0e4429"/>
<rect x="626.75" y="63" width="14.96" height="10" rx="2" fill="#0e4429"/>
<rect x="626.75" y="76" width="14.96" height="10" rx="2" fill="#0e4429"/>
<rect x="626.75" y="89" width="14.96" height="10" rx="2" fill="#006d32"/>
<rect x="626.75" y="102" width="14.96" height="10" rx="2" fill="#39d353"/>
<rect x="644.72" y="24" width="14.96" height="10" rx="2" fill="#39d353"/>
<rect x="644.72" y="37" width="14.96" height="10" rx="2" fill="#0e4429"/>
<rect x="644.72" y="50" width="14.96" height="10" rx="2" fill="#0e4429"/>
<rect x="644.72" y="63" width="14.96" height="10" rx="2" fill="#006d32"/>
<rect x="644.72" y="76" width="14.96" height="10" rx="2" fill="#0e4429"/>
<rect x="644.72" y="89" width="14.96" height="10" rx="2" fill="#0e4429"/>
<rect x="644.72" y="102" width="14.96" height="10" rx="2" fill="#0e4429"/>
<rect x="662.68" y="24" width="14.96" height="10" rx="2" fill="#0e4429"/>
<rect x="662.68" y="37" width="14.96" height="10" rx="2" fill="#0e4429"/>
<rect x="662.68" y="50" width="14.96" height="10" rx="2" fill="#006d32"/>
<rect x="662.68" y="63" width="14.96" height="10" rx="2" fill="#006d32"/>
<rect x="662.68" y="76" width="14.96" height="10" rx="2" fill="#0e4429"/>
<rect x="662.68" y="89" width="14.96" height="10" rx="2" fill="#0e4429"/>
<rect x="662.68" y="102" width="14.96" height="10" rx="2" fill="#161e2b"/>
<rect x="680.64" y="24" width="14.96" height="10" rx="2" fill="#161e2b"/>
<rect x="680.64" y="37" width="14.96" height="10" rx="2" fill="#0e4429"/>
<rect x="680.64" y="50" width="14.96" height="10" rx="2" fill="#0e4429"/>
<rect x="680.64" y="63" width="14.96" height="10" rx="2" fill="#0e4429"/>
<rect x="680.64" y="76" width="14.96" height="10" rx="2" fill="#0e4429"/>
<rect x="680.64" y="89" width="14.96" height="10" rx="2" fill="#006d32"/>
<rect x="680.64" y="102" width="14.96" height="10" rx="2" fill="#0e4429"/>
<rect x="698.60" y="24" width="14.96" height="10" rx="2" fill="#0e4429"/>
<rect x="698.60" y="37" width="14.96" height="10" rx="2" fill="#0e4429"/>
<rect x="698.60" y="50" width="14.96" height="10" rx="2" fill="#0e4429"/>
<rect x="698.60" y="63" width="14.96" height="10" rx="2" fill="#161e2b"/>
<rect x="698.60" y="76" width="14.96" height="10" rx="2" fill="#161e2b"/>
<rect x="698.60" y="89" width="14.96" height="10" rx="2" fill="#161e2b"/>
<rect x="698.60" y="102" width="14.96" height="10" rx="2" fill="#161e2b"/>
<rect x="716.57" y="24" width="14.96" height="10" rx="2" fill="#161e2b"/>
<rect x="716.57" y="37" width="14.96" height="10" rx="2" fill="#161e2b"/>
<rect x="716.57" y="50" width="14.96" height="10" rx="2" fill="#161e2b"/>
<rect x="716.57" y="63" width="14.96" height="10" rx="2" fill="#39d353"/>
<rect x="716.57" y="76" width="14.96" height="10" rx="2" fill="#161e2b"/>
<rect x="716.57" y="89" width="14.96" height="10" rx="2" fill="#161e2b"/>
<rect x="716.57" y="102" width="14.96" height="10" rx="2" fill="#161e2b"/>
<rect x="734.53" y="24" width="14.96" height="10" rx="2" fill="#161e2b"/>
<rect x="734.53" y="37" width="14.96" height="10" rx="2" fill="#0e4429"/>
<rect x="734.53" y="50" width="14.96" height="10" rx="2" fill="#0e4429"/>
<rect x="734.53" y="63" width="14.96" height="10" rx="2" fill="#0e4429"/>
<rect x="734.53" y="76" width="14.96" height="10" rx="2" fill="#0e4429"/>
<rect x="734.53" y="89" width="14.96" height="10" rx="2" fill="#0e4429"/>
<rect x="734.53" y="102" width="14.96" height="10" rx="2" fill="#161e2b"/>
<rect x="752.49" y="24" width="14.96" height="10" rx="2" fill="#0e4429"/>
<rect x="752.49" y="37" width="14.96" height="10" rx="2" fill="#0e4429"/>
<rect x="752.49" y="50" width="14.96" height="10" rx="2" fill="#0e4429"/>
<rect x="752.49" y="63" width="14.96" height="10" rx="2" fill="#161e2b"/>
<rect x="752.49" y="76" width="14.96" height="10" rx="2" fill="#161e2b"/>
<rect x="752.49" y="89" width="14.96" height="10" rx="2" fill="#161e2b"/>
<rect x="752.49" y="102" width="14.96" height="10" rx="2" fill="#161e2b"/>
<rect x="770.45" y="24" width="14.96" height="10" rx="2" fill="#161e2b"/>
<rect x="770.45" y="37" width="14.96" height="10" rx="2" fill="#161e2b"/>
<rect x="770.45" y="50" width="14.96" height="10" rx="2" fill="#161e2b"/>
<rect x="770.45" y="63" width="14.96" height="10" rx="2" fill="#161e2b"/>
<rect x="770.45" y="76" width="14.96" height="10" rx="2" fill="#161e2b"/>
<rect x="770.45" y="89" width="14.96" height="10" rx="2" fill="#161e2b"/>
<rect x="770.45" y="102" width="14.96" height="10" rx="2" fill="#161e2b"/>
<rect x="788.42" y="24" width="14.96" height="10" rx="2" fill="#161e2b"/>
<rect x="788.42" y="37" width="14.96" height="10" rx="2" fill="#161e2b"/>
<rect x="788.42" y="50" width="14.96" height="10" rx="2" fill="#161e2b"/>
<rect x="788.42" y="63" width="14.96" height="10" rx="2" fill="#161e2b"/>
<rect x="788.42" y="76" width="14.96" height="10" rx="2" fill="#161e2b"/>
<rect x="788.42" y="89" width="14.96" height="10" rx="2" fill="#0e4429"/>
<rect x="788.42" y="102" width="14.96" height="10" rx="2" fill="#161e2b"/>
<rect x="806.38" y="24" width="14.96" height="10" rx="2" fill="#161e2b"/>
<rect x="806.38" y="37" width="14.96" height="10" rx="2" fill="#161e2b"/>
<rect x="806.38" y="50" width="14.96" height="10" rx="2" fill="#161e2b"/>
<rect x="806.38" y="63" width="14.96" height="10" rx="2" fill="#161e2b"/>
<rect x="806.38" y="76" width="14.96" height="10" rx="2" fill="#161e2b"/>
<rect x="806.38" y="89" width="14.96" height="10" rx="2" fill="#161e2b"/>
<rect x="806.38" y="102" width="14.96" height="10" rx="2" fill="#161e2b"/>
<rect x="824.34" y="24" width="14.96" height="10" rx="2" fill="#161e2b"/>
<rect x="824.34" y="37" width="14.96" height="10" rx="2" fill="#161e2b"/>
<rect x="824.34" y="50" width="14.96" height="10" rx="2" fill="#161e2b"/>
<rect x="824.34" y="63" width="14.96" height="10" rx="2" fill="#161e2b"/>
<rect x="824.34" y="76" width="14.96" height="10" rx="2" fill="#161e2b"/>
<rect x="824.34" y="89" width="14.96" height="10" rx="2" fill="#161e2b"/>
<rect x="824.34" y="102" width="14.96" height="10" rx="2" fill="#161e2b"/>
<rect x="842.30" y="24" width="14.96" height="10" rx="2" fill="#161e2b"/>
<rect x="842.30" y="37" width="14.96" height="10" rx="2" fill="#161e2b"/>
<rect x="842.30" y="50" width="14.96" height="10" rx="2" fill="#161e2b"/>
<rect x="842.30" y="63" width="14.96" height="10" rx="2" fill="#161e2b"/>
<rect x="842.30" y="76" width="14.96" height="10" rx="2" fill="#161e2b"/>
<rect x="842.30" y="89" width="14.96" height="10" rx="2" fill="#161e2b"/>
<rect x="842.30" y="102" width="14.96" height="10" rx="2" fill="#161e2b"/>
<rect x="860.26" y="24" width="14.96" height="10" rx="2" fill="#0e4429"/>
<rect x="860.26" y="37" width="14.96" height="10" rx="2" fill="#161e2b"/>
<rect x="860.26" y="50" width="14.96" height="10" rx="2" fill="#161e2b"/>
<rect x="860.26" y="63" width="14.96" height="10" rx="2" fill="#161e2b"/>
<rect x="860.26" y="76" width="14.96" height="10" rx="2" fill="#0e4429"/>
<rect x="860.26" y="89" width="14.96" height="10" rx="2" fill="#161e2b"/>
<rect x="860.26" y="102" width="14.96" height="10" rx="2" fill="#0e4429"/>
<rect x="878.23" y="24" width="14.96" height="10" rx="2" fill="#0e4429"/>
<rect x="878.23" y="37" width="14.96" height="10" rx="2" fill="#0e4429"/>
<rect x="878.23" y="50" width="14.96" height="10" rx="2" fill="#0e4429"/>
<rect x="878.23" y="63" width="14.96" height="10" rx="2" fill="#0e4429"/>
<rect x="878.23" y="76" width="14.96" height="10" rx="2" fill="#161e2b"/>
<rect x="878.23" y="89" width="14.96" height="10" rx="2" fill="#0e4429"/>
<rect x="878.23" y="102" width="14.96" height="10" rx="2" fill="#0e4429"/>
<rect x="896.19" y="24" width="14.96" height="10" rx="2" fill="#0e4429"/>
<rect x="896.19" y="37" width="14.96" height="10" rx="2" fill="#161e2b"/>
<rect x="896.19" y="50" width="14.96" height="10" rx="2" fill="#161e2b"/>
<rect x="896.19" y="63" width="14.96" height="10" rx="2" fill="#0e4429"/>
<rect x="896.19" y="76" width="14.96" height="10" rx="2" fill="#161e2b"/>
<rect x="896.19" y="89" width="14.96" height="10" rx="2" fill="#161e2b"/>
<rect x="896.19" y="102" width="14.96" height="10" rx="2" fill="#161e2b"/>
<rect x="914.15" y="24" width="14.96" height="10" rx="2" fill="#161e2b"/>
<rect x="914.15" y="37" width="14.96" height="10" rx="2" fill="#161e2b"/>
<rect x="914.15" y="50" width="14.96" height="10" rx="2" fill="#161e2b"/>
<rect x="914.15" y="63" width="14.96" height="10" rx="2" fill="#161e2b"/>
<rect x="914.15" y="76" width="14.96" height="10" rx="2" fill="#161e2b"/>
<rect x="914.15" y="89" width="14.96" height="10" rx="2" fill="#161e2b"/>
<rect x="914.15" y="102" width="14.96" height="10" rx="2" fill="#161e2b"/>
<rect x="932.11" y="24" width="14.96" height="10" rx="2" fill="#161e2b"/>
<rect x="932.11" y="37" width="14.96" height="10" rx="2" fill="#161e2b"/>
<rect x="932.11" y="50" width="14.96" height="10" rx="2" fill="#161e2b"/>
<rect x="932.11" y="63" width="14.96" height="10" rx="2" fill="#161e2b"/>
<rect x="932.11" y="76" width="14.96" height="10" rx="2" fill="#161e2b"/>
<rect x="932.11" y="89" width="14.96" height="10" rx="2" fill="#161e2b"/>
<rect x="932.11" y="102" width="14.96" height="10" rx="2" fill="#0e4429"/>
<rect x="950.08" y="24" width="14.96" height="10" rx="2" fill="#0e4429"/>
<rect x="950.08" y="37" width="14.96" height="10" rx="2" fill="#161e2b"/>
<rect x="950.08" y="50" width="14.96" height="10" rx="2" fill="#161e2b"/>
<rect x="950.08" y="63" width="14.96" height="10" rx="2" fill="#161e2b"/>
<rect x="950.08" y="76" width="14.96" height="10" rx="2" fill="#0e4429"/>
<rect x="950.08" y="89" width="14.96" height="10" rx="2" fill="#0e4429"/>
<rect x="950.08" y="102" width="14.96" height="10" rx="2" fill="#0e4429"/>
<rect x="968.04" y="24" width="14.96" height="10" rx="2" fill="#161e2b"/>
<rect x="968.04" y="37" width="14.96" height="10" rx="2" fill="#0e4429"/>
<rect x="968.04" y="50" width="14.96" height="10" rx="2" fill="#26a641"/>
<rect x="968.04" y="63" width="14.96" height="10" rx="2" fill="#39d353"/>
<rect x="968.04" y="76" width="14.96" height="10" rx="2" fill="#0e4429"/>
<g font-family="system-ui, sans-serif" font-size="10" fill="#9ca8b8"><text x="851" y="125">Less</text><text x="965" y="125">More</text></g>
<rect x="879" y="116" width="10" height="10" rx="2" fill="#161e2b"/>
<rect x="894" y="116" width="10" height="10" rx="2" fill="#0e4429"/>
<rect x="909" y="116" width="10" height="10" rx="2" fill="#006d32"/>
<rect x="924" y="116" width="10" height="10" rx="2" fill="#26a641"/>
<rect x="939" y="116" width="10" height="10" rx="2" fill="#39d353"/>
</svg>
